<svg xmlns="http://www.w3.org/2000/svg" version="1.1" xmlns:xlink="http://www.w3.org/1999/xlink" xmlns:svgjs="http://svgjs.dev/svgjs" width="1500" height="1500" viewBox="0 0 1500 1500"><rect width="1500" height="1500" fill="#cbe7dd"></rect><g transform="matrix(0.6666666666666666,0,0,0.6666666666666666,249.39002629921617,401.6156545209177)"><svg viewBox="0 0 354 247" data-background-color="#cbe7dd" preserveAspectRatio="xMidYMid meet" height="1046" width="1500" xmlns="http://www.w3.org/2000/svg" xmlns:xlink="http://www.w3.org/1999/xlink"><g id="tight-bounds" transform="matrix(1,0,0,1,0.2159306900774709,-0.09999999999999432)"><svg viewBox="0 0 353.56813861984506 247.2" height="247.2" width="353.56813861984506"><g><svg viewBox="0 0 397.4975999999999 277.9136352714468" height="247.2" width="353.56813861984506"><g><rect width="397.4975999999999" height="7.211847476362117" x="0" y="124.30759918097776" fill="#1c4a44" opacity="1" stroke-width="0" stroke="transparent" fill-opacity="1" class="rect-qz-0" data-fill-palette-color="primary" rx="1%" id="qz-0" data-palette-color="#1c4a44"></rect></g><g transform="matrix(1,0,0,1,0.9887999999999693,150.39862853263338)"><svg viewBox="0 0 395.52 127.51500673881343" height="127.51500673881343" width="395.52"><g id="textblocktransform"><svg viewBox="0 0 395.52 127.51500673881343" height="127.51500673881343" width="395.52" id="textblock"><g><svg viewBox="0 0 395.52 79.97078006783197" height="79.97078006783197" width="395.52"><g transform="matrix(1,0,0,1,0,0)"><svg width="395.52" viewBox="3.65 -38.1 191.63 38.75" height="79.97078006783197" data-palette-color="#1c4a44"><path d="M26.7 0L26.7-17.2 9-17.2 9 0 4.35 0 4.35-33.1Q4.35-33.15 4.17-33.9 4-34.65 3.85-35.45 3.7-36.25 3.65-36.4L3.65-36.4 9-36.4 9-20.6 26.7-20.6 26.7-36.4 31.35-36.4 31.35 0 26.7 0ZM44.95-33.2L44.95-33.2Q44.95-31.95 44.07-31.05 43.2-30.15 41.9-30.15L41.9-30.15Q40.65-30.15 39.77-31.05 38.9-31.95 38.9-33.2L38.9-33.2Q38.9-34.45 39.77-35.35 40.65-36.25 41.9-36.25L41.9-36.25Q43.15-36.25 44.05-35.35 44.95-34.45 44.95-33.2ZM39.3-24.85L44.05-24.85 44.05 0 39.9 0 39.9-21.9 39.3-24.85ZM51.65-38.1L56.45-38.1 56.45-14.6 65.75-24.85 70.2-24.85 60.65-14.4 71.55 0 66.59 0 56.45-13.5 56.45 0 52.3 0 52.3-35.15 51.65-38.1ZM83.69-25.45L83.69-25.45Q86.69-25.45 88.74-24.23 90.79-23 91.82-20.83 92.84-18.65 92.84-15.75L92.84-15.75Q92.84-15.05 92.77-14.33 92.69-13.6 92.59-12.8L92.59-12.8 76.79-12.8Q76.79-8.05 78.89-5.45 80.99-2.85 84.49-2.85L84.49-2.85Q85.94-2.85 87.52-3.3 89.09-3.75 90.79-4.65L90.79-4.65 92.34-2.15Q90.59-0.75 88.39-0.05 86.19 0.65 83.94 0.65L83.94 0.65Q80.04 0.65 77.47-1.2 74.89-3.05 73.64-6 72.39-8.95 72.39-12.15L72.39-12.15Q72.39-14.65 73.09-17 73.79-19.35 75.22-21.28 76.64-23.2 78.74-24.33 80.84-25.45 83.69-25.45ZM83.29-22.3L83.29-22.3Q81.59-22.3 80.29-21.35 78.99-20.4 78.19-18.93 77.39-17.45 77.09-15.9L77.09-15.9 88.49-15.9Q88.54-18 87.92-19.43 87.29-20.85 86.12-21.58 84.94-22.3 83.29-22.3ZM110.69-33.1L109.99-36.4 115.34-36.4 115.34-3.45 130.64-3.45 130.64 0 110.69 0 110.69-33.1ZM141.34-33.2L141.34-33.2Q141.34-31.95 140.46-31.05 139.59-30.15 138.29-30.15L138.29-30.15Q137.04-30.15 136.16-31.05 135.29-31.95 135.29-33.2L135.29-33.2Q135.29-34.45 136.16-35.35 137.04-36.25 138.29-36.25L138.29-36.25Q139.54-36.25 140.44-35.35 141.34-34.45 141.34-33.2ZM135.69-24.85L140.44-24.85 140.44 0 136.29 0 136.29-21.9 135.69-24.85ZM146.98-24.65L151.53-25.25Q151.88-24.4 152.13-23.5 152.38-22.6 152.48-21.7L152.48-21.7Q153.98-23.2 156.03-24.33 158.08-25.45 160.23-25.45L160.23-25.45Q162.98-25.45 164.66-24.3 166.33-23.15 167.08-21.18 167.83-19.2 167.83-16.6L167.83-16.6 167.83 0 163.73 0 163.73-15.25Q163.73-16.8 163.51-18.3 163.28-19.8 162.41-20.78 161.53-21.75 159.53-21.75L159.53-21.75Q158.33-21.75 157.08-21.28 155.83-20.8 154.73-20.05 153.63-19.3 152.73-18.45L152.73-18.45 152.73 0 148.63 0 148.63-17.6Q148.63-18.6 148.48-19.93 148.33-21.25 147.98-22.53 147.63-23.8 146.98-24.65L146.98-24.65ZM175.38-38.1L180.18-38.1 180.18-14.6 189.48-24.85 193.93-24.85 184.38-14.4 195.28 0 190.33 0 180.18-13.5 180.18 0 176.03 0 176.03-35.15 175.38-38.1Z" opacity="1" transform="matrix(1,0,0,1,0,0)" fill="#1c4a44" class="wordmark-text-0" data-fill-palette-color="primary" id="text-0"></path></svg></g></svg></g><g transform="matrix(1,0,0,1,0,98.84996194312546)"><svg viewBox="0 0 395.52 28.665044795687958" height="28.665044795687958" width="395.52"><g transform="matrix(1,0,0,1,0,0)"><svg width="395.52" viewBox="3.45 -38.15 686.3599999999999 49.75" height="28.665044795687958" data-palette-color="#1c4a44"><path d="M13.8 0.3L13.8 0.3Q11 0.3 8.63-0.75 6.25-1.8 4.85-4.15 3.45-6.5 3.45-10.4L3.45-10.4 3.45-25.9Q3.45-29.75 4.88-32.1 6.3-34.45 8.68-35.5 11.05-36.55 13.9-36.55L13.9-36.55Q17.2-36.55 19.5-35.4 21.8-34.25 23.03-32.35 24.25-30.45 24.25-28.2L24.25-28.2Q24.25-27 23.83-26.6 23.4-26.2 22.6-26.2L22.6-26.2Q21.7-26.2 21.33-26.58 20.95-26.95 20.95-27.45L20.95-27.45Q20.9-28.25 20.63-29.3 20.35-30.35 19.63-31.3 18.9-32.25 17.53-32.88 16.15-33.5 13.95-33.5L13.95-33.5Q10.45-33.5 8.6-31.65 6.75-29.8 6.75-25.9L6.75-25.9 6.75-10.4Q6.75-6.45 8.63-4.6 10.5-2.75 14.1-2.75L14.1-2.75Q16.35-2.75 17.65-3.38 18.95-4 19.63-4.93 20.3-5.85 20.55-6.93 20.8-8 20.95-8.9L20.95-8.9Q21-9.55 21.4-9.88 21.8-10.2 22.55-10.2L22.55-10.2Q23.4-10.2 23.83-9.78 24.25-9.35 24.25-8.15L24.25-8.15Q24.25-5.9 23-3.98 21.75-2.05 19.43-0.88 17.1 0.3 13.8 0.3ZM37.95 0.35L37.95 0.35Q35.4 0.35 33.25-0.98 31.1-2.3 29.77-4.48 28.45-6.65 28.45-9.15L28.45-9.15 28.45-14.6Q28.45-17.1 29.75-19.23 31.05-21.35 33.2-22.65 35.35-23.95 37.95-23.95L37.95-23.95Q40.5-23.95 42.67-22.68 44.85-21.4 46.15-19.3 47.45-17.2 47.45-14.6L47.45-14.6 47.45-9.15Q47.45-6.7 46.15-4.5 44.85-2.3 42.67-0.98 40.5 0.35 37.95 0.35ZM37.95-2.65L37.95-2.65Q39.7-2.65 41.1-3.58 42.5-4.5 43.35-6 44.2-7.5 44.2-9.15L44.2-9.15 44.2-14.6Q44.2-16.2 43.37-17.65 42.55-19.1 41.12-20.03 39.7-20.95 37.95-20.95L37.95-20.95Q36.2-20.95 34.8-20.03 33.4-19.1 32.55-17.65 31.7-16.2 31.7-14.6L31.7-14.6 31.7-9.15Q31.7-7.5 32.55-6 33.4-4.5 34.82-3.58 36.25-2.65 37.95-2.65ZM54.4 0L54.4 0Q53.75 0 53.27-0.4 52.8-0.8 52.8-1.3L52.8-1.3 52.8-22.45Q52.8-23 53.27-23.33 53.75-23.65 54.4-23.65L54.4-23.65Q55.05-23.65 55.5-23.33 55.95-23 55.95-22.45L55.95-22.45 55.95-20.15Q56.75-21.6 58.45-22.78 60.15-23.95 62.65-23.95L62.65-23.95Q65.05-23.95 67.07-22.68 69.1-21.4 70.3-19.3 71.5-17.2 71.5-14.6L71.5-14.6 71.5-1.3Q71.5-0.65 71-0.33 70.5 0 69.85 0L69.85 0Q69.3 0 68.77-0.33 68.25-0.65 68.25-1.3L68.25-1.3 68.25-14.6Q68.25-16.2 67.4-17.65 66.55-19.1 65.15-20.03 63.75-20.95 62.05-20.95L62.05-20.95Q60.55-20.95 59.17-20.18 57.8-19.4 56.92-18 56.05-16.6 56.05-14.6L56.05-14.6 56.05-1.3Q56.05-0.8 55.57-0.4 55.1 0 54.4 0ZM79.09 0L79.09 0Q78.44 0 77.97-0.4 77.49-0.8 77.49-1.3L77.49-1.3 77.49-22.45Q77.49-23 77.97-23.33 78.44-23.65 79.09-23.65L79.09-23.65Q79.74-23.65 80.19-23.33 80.64-23 80.64-22.45L80.64-22.45 80.64-20.15Q81.44-21.6 83.14-22.78 84.84-23.95 87.34-23.95L87.34-23.95Q89.74-23.95 91.77-22.68 93.79-21.4 94.99-19.3 96.19-17.2 96.19-14.6L96.19-14.6 96.19-1.3Q96.19-0.65 95.69-0.33 95.19 0 94.54 0L94.54 0Q93.99 0 93.47-0.33 92.94-0.65 92.94-1.3L92.94-1.3 92.94-14.6Q92.94-16.2 92.09-17.65 91.24-19.1 89.84-20.03 88.44-20.95 86.74-20.95L86.74-20.95Q85.24-20.95 83.87-20.18 82.49-19.4 81.62-18 80.74-16.6 80.74-14.6L80.74-14.6 80.74-1.3Q80.74-0.8 80.27-0.4 79.79 0 79.09 0ZM112.09 0.35L112.09 0.35Q108.94 0.35 106.52-0.85 104.09-2.05 102.72-4.17 101.34-6.3 101.34-9.15L101.34-9.15 101.34-14.75Q101.34-17.25 102.64-19.35 103.94-21.45 106.12-22.7 108.29-23.95 110.89-23.95L110.89-23.95Q113.39-23.95 115.52-22.78 117.64-21.6 118.94-19.55 120.24-17.5 120.24-14.85L120.24-14.85Q120.24-12.9 119.59-12.08 118.94-11.25 117.97-11.05 116.99-10.85 115.89-10.85L115.89-10.85 104.59-10.85 104.59-9Q104.59-6 106.74-4.25 108.89-2.5 112.19-2.5L112.19-2.5Q114.19-2.5 115.29-3 116.39-3.5 117.02-4 117.64-4.5 118.19-4.5L118.19-4.5Q118.59-4.5 118.92-4.23 119.24-3.95 119.42-3.6 119.59-3.25 119.59-2.95L119.59-2.95Q119.59-2.4 118.69-1.6 117.79-0.8 116.09-0.23 114.39 0.35 112.09 0.35ZM104.59-15.15L104.59-13.25 114.59-13.25Q116.09-13.25 116.59-13.58 117.09-13.9 117.09-14.95L117.09-14.95Q117.09-16.55 116.32-18 115.54-19.45 114.12-20.35 112.69-21.25 110.84-21.25L110.84-21.25Q109.14-21.25 107.72-20.43 106.29-19.6 105.44-18.23 104.59-16.85 104.59-15.15L104.59-15.15ZM133.99 0.35L133.99 0.35Q130.69 0.35 128.54-0.9 126.39-2.15 125.34-4.3 124.29-6.45 124.29-9.15L124.29-9.15 124.29-14.5Q124.29-17.15 125.31-19.3 126.34-21.45 128.51-22.7 130.69-23.95 133.99-23.95L133.99-23.95Q136.09-23.95 137.66-23.43 139.24-22.9 140.11-22.15 140.99-21.4 140.99-20.7L140.99-20.7Q140.99-20.4 140.81-20.03 140.64-19.65 140.31-19.38 139.99-19.1 139.59-19.1L139.59-19.1Q139.14-19.1 138.56-19.58 137.99-20.05 136.99-20.5 135.99-20.95 134.14-20.95L134.14-20.95Q130.89-20.95 129.21-19.23 127.54-17.5 127.54-14.5L127.54-14.5 127.54-9.15Q127.54-6.1 129.21-4.38 130.89-2.65 134.19-2.65L134.19-2.65Q136.09-2.65 137.14-3.13 138.19-3.6 138.76-4.08 139.34-4.55 139.84-4.55L139.84-4.55Q140.29-4.55 140.61-4.3 140.94-4.05 141.11-3.7 141.29-3.35 141.29-2.95L141.29-2.95Q141.29-2.3 140.39-1.53 139.49-0.75 137.86-0.2 136.24 0.35 133.99 0.35ZM154.94 0L153.54 0Q149.69 0 147.64-1.75 145.59-3.5 145.59-7.35L145.59-7.35 145.59-33.7Q145.59-34.25 146.11-34.58 146.64-34.9 147.19-34.9L147.19-34.9Q147.84-34.9 148.34-34.58 148.84-34.25 148.84-33.7L148.84-33.7 148.84-23.65 155.34-23.65Q155.84-23.65 156.14-23.25 156.44-22.85 156.44-22.3L156.44-22.3Q156.44-21.75 156.14-21.35 155.84-20.95 155.34-20.95L155.34-20.95 148.84-20.95 148.84-7.35Q148.84-4.9 149.89-3.93 150.94-2.95 153.54-2.95L153.54-2.95 154.94-2.95Q155.64-2.95 156.01-2.53 156.39-2.1 156.39-1.5L156.39-1.5Q156.39-0.9 156.01-0.45 155.64 0 154.94 0L154.94 0ZM162.03 0L162.03 0Q161.38 0 160.91-0.4 160.43-0.8 160.43-1.3L160.43-1.3 160.43-22.45Q160.43-23 160.91-23.33 161.38-23.65 162.03-23.65L162.03-23.65Q162.73-23.65 163.21-23.33 163.68-23 163.68-22.45L163.68-22.45 163.68-1.3Q163.68-0.8 163.21-0.4 162.73 0 162.03 0ZM162.03-30.65L162.03-30.65Q161.13-30.65 160.48-31.28 159.83-31.9 159.83-32.75L159.83-32.75Q159.83-33.6 160.48-34.2 161.13-34.8 162.03-34.8L162.03-34.8Q162.98-34.8 163.61-34.2 164.23-33.6 164.23-32.75L164.23-32.75Q164.23-31.9 163.61-31.28 162.98-30.65 162.03-30.65ZM171.48 0L171.48 0Q170.83 0 170.36-0.4 169.88-0.8 169.88-1.3L169.88-1.3 169.88-22.45Q169.88-23 170.36-23.33 170.83-23.65 171.48-23.65L171.48-23.65Q172.13-23.65 172.58-23.33 173.03-23 173.03-22.45L173.03-22.45 173.03-20.15Q173.83-21.6 175.53-22.78 177.23-23.95 179.73-23.95L179.73-23.95Q182.13-23.95 184.16-22.68 186.18-21.4 187.38-19.3 188.58-17.2 188.58-14.6L188.58-14.6 188.58-1.3Q188.58-0.65 188.08-0.33 187.58 0 186.93 0L186.93 0Q186.38 0 185.86-0.33 185.33-0.65 185.33-1.3L185.33-1.3 185.33-14.6Q185.33-16.2 184.48-17.65 183.63-19.1 182.23-20.03 180.83-20.95 179.13-20.95L179.13-20.95Q177.63-20.95 176.26-20.18 174.88-19.4 174.01-18 173.13-16.6 173.13-14.6L173.13-14.6 173.13-1.3Q173.13-0.8 172.66-0.4 172.18 0 171.48 0ZM202.98 11.6L202.98 11.6Q200.03 11.6 197.75 10.78 195.48 9.95 194.15 8.47 192.83 7 192.83 4.95L192.83 4.95Q192.83 2.75 194.13 1.45 195.43 0.15 197.08-0.5L197.08-0.5Q195.88-0.95 195.1-1.73 194.33-2.5 194.33-3.95L194.33-3.95Q194.33-5.35 195.03-6.18 195.73-7 196.83-7.55L196.83-7.55Q195.48-8.65 194.78-10.28 194.08-11.9 194.08-13.85L194.08-13.85 194.08-15.75Q194.08-18.15 195.13-20 196.18-21.85 198.13-22.9 200.08-23.95 202.68-23.95L202.68-23.95Q204.43-23.95 205.93-23.4 207.43-22.85 208.53-21.85L208.53-21.85Q209.28-23.4 210.23-24.2 211.18-25 212.08-25L212.08-25Q212.83-25 213.2-24.58 213.58-24.15 213.58-23.7L213.58-23.7Q213.58-23.25 213.33-22.98 213.08-22.7 212.73-22.6L212.73-22.6Q212.13-22.5 211.35-22.05 210.58-21.6 209.93-20.45L209.93-20.45Q210.63-19.5 210.98-18.3 211.33-17.1 211.33-15.75L211.33-15.75 211.33-13.85Q211.33-11.5 210.23-9.6 209.13-7.7 207.15-6.63 205.18-5.55 202.63-5.55L202.63-5.55Q200.48-5.55 198.78-6.4L198.78-6.4Q198.23-6.1 197.73-5.68 197.23-5.25 197.23-4.45L197.23-4.45Q197.23-3.35 198.38-2.85 199.53-2.35 201.28-2.15 203.03-1.95 205-1.73 206.98-1.5 208.75-0.9 210.53-0.3 211.65 0.95 212.78 2.2 212.78 4.5L212.78 4.5Q212.78 6.85 211.5 8.43 210.23 10 208.03 10.8 205.83 11.6 202.98 11.6ZM202.93 9.15L202.93 9.15Q206.08 9.15 207.85 7.9 209.63 6.65 209.63 4.6L209.63 4.6Q209.63 3 208.65 2.18 207.68 1.35 206.2 1 204.73 0.65 203.15 0.5 201.58 0.35 200.43 0.2L200.43 0.2Q198.68 0.75 197.33 1.8 195.98 2.85 195.98 4.65L195.98 4.65Q195.98 6.65 197.83 7.9 199.68 9.15 202.93 9.15ZM202.73-8L202.73-8Q205.28-8 206.7-9.68 208.13-11.35 208.13-13.85L208.13-13.85 208.13-15.75Q208.13-18.2 206.7-19.85 205.28-21.5 202.68-21.5L202.68-21.5Q200.08-21.5 198.65-19.85 197.23-18.2 197.23-15.75L197.23-15.75 197.23-13.9Q197.23-11.4 198.68-9.7 200.13-8 202.73-8ZM236.12 0L236.12 0Q235.47 0 234.97-0.33 234.47-0.65 234.47-1.3L234.47-1.3 234.47-33.45 226.07-33.45Q225.47-33.45 225.15-33.93 224.82-34.4 224.82-35L224.82-35Q224.82-35.6 225.15-36.08 225.47-36.55 226.07-36.55L226.07-36.55 246.12-36.55Q246.77-36.55 247.07-36.1 247.37-35.65 247.37-35.05L247.37-35.05Q247.37-34.45 247.07-33.95 246.77-33.45 246.12-33.45L246.12-33.45 237.77-33.45 237.77-1.3Q237.77-0.65 237.25-0.33 236.72 0 236.12 0ZM248.12 0L248.12 0Q247.47 0 247-0.4 246.52-0.8 246.52-1.3L246.52-1.3 246.52-22.45Q246.52-23 247-23.33 247.47-23.65 248.12-23.65L248.12-23.65Q248.77-23.65 249.22-23.33 249.67-23 249.67-22.45L249.67-22.45 249.67-20Q250.22-21 251.17-21.9 252.12-22.8 253.42-23.38 254.72-23.95 256.37-23.95L256.37-23.95 258.12-23.95Q258.67-23.95 259.05-23.53 259.42-23.1 259.42-22.45L259.42-22.45Q259.42-21.85 259.05-21.4 258.67-20.95 258.12-20.95L258.12-20.95 256.37-20.95Q254.72-20.95 253.2-20.08 251.67-19.2 250.72-17.57 249.77-15.95 249.77-13.65L249.77-13.65 249.77-1.3Q249.77-0.8 249.3-0.4 248.82 0 248.12 0ZM267.17 0.35L267.17 0.35Q264.37 0.35 262.37-1.28 260.37-2.9 260.37-6.25L260.37-6.25Q260.37-9 261.84-10.48 263.32-11.95 265.94-12.53 268.57-13.1 272.02-13.1L272.02-13.1 274.57-13.1 274.57-14.3Q274.57-15.9 273.99-17.48 273.42-19.05 272.14-20.08 270.87-21.1 268.67-21.1L268.67-21.1Q267.02-21.1 265.97-20.75 264.92-20.4 264.32-20.03 263.72-19.65 263.32-19.65L263.32-19.65Q262.72-19.65 262.37-20.25 262.02-20.85 262.02-21.4L262.02-21.4Q262.02-22.05 263.04-22.63 264.07-23.2 265.64-23.58 267.22-23.95 268.77-23.95L268.77-23.95Q272.12-23.95 274.09-22.58 276.07-21.2 276.94-19 277.82-16.8 277.82-14.3L277.82-14.3 277.82-1.3Q277.82-0.75 277.39-0.38 276.97 0 276.22 0L276.22 0Q275.62 0 275.17-0.38 274.72-0.75 274.72-1.3L274.72-1.3 274.72-3.5Q273.42-2.05 271.57-0.85 269.72 0.35 267.17 0.35ZM267.97-2.4L267.97-2.4Q269.62-2.4 271.12-3.25 272.62-4.1 273.59-5.33 274.57-6.55 274.57-7.65L274.57-7.65 274.57-10.85 272.47-10.85Q270.22-10.85 268.19-10.58 266.17-10.3 264.89-9.4 263.62-8.5 263.62-6.55L263.62-6.55Q263.62-4.4 264.89-3.4 266.17-2.4 267.97-2.4ZM285.41 0L285.41 0Q284.76 0 284.29-0.4 283.81-0.8 283.81-1.3L283.81-1.3 283.81-22.45Q283.81-23 284.29-23.33 284.76-23.65 285.41-23.65L285.41-23.65Q286.11-23.65 286.59-23.33 287.06-23 287.06-22.45L287.06-22.45 287.06-1.3Q287.06-0.8 286.59-0.4 286.11 0 285.41 0ZM285.41-30.65L285.41-30.65Q284.51-30.65 283.86-31.28 283.21-31.9 283.21-32.75L283.21-32.75Q283.21-33.6 283.86-34.2 284.51-34.8 285.41-34.8L285.41-34.8Q286.36-34.8 286.99-34.2 287.61-33.6 287.61-32.75L287.61-32.75Q287.61-31.9 286.99-31.28 286.36-30.65 285.41-30.65ZM295.31 0L295.31 0Q294.66 0 294.19-0.4 293.71-0.8 293.71-1.3L293.71-1.3 293.71-36.95Q293.71-37.5 294.19-37.83 294.66-38.15 295.31-38.15L295.31-38.15Q296.01-38.15 296.49-37.83 296.96-37.5 296.96-36.95L296.96-36.95 296.96-1.3Q296.96-0.8 296.49-0.4 296.01 0 295.31 0ZM310.11 0.35L310.11 0.35Q307.76 0.35 306.01-0.25 304.26-0.85 303.26-1.68 302.26-2.5 302.26-3.25L302.26-3.25Q302.26-3.6 302.41-3.93 302.56-4.25 302.83-4.5 303.11-4.75 303.41-4.75L303.41-4.75Q303.96-4.75 304.63-4.17 305.31-3.6 306.53-3 307.76-2.4 310.01-2.4L310.01-2.4Q312.86-2.4 314.01-3.48 315.16-4.55 315.16-5.95L315.16-5.95Q315.16-7.6 314.28-8.53 313.41-9.45 311.98-9.98 310.56-10.5 308.98-10.93 307.41-11.35 305.98-12.03 304.56-12.7 303.68-13.9 302.81-15.1 302.81-17.15L302.81-17.15Q302.81-18.75 303.61-20.33 304.41-21.9 306.13-22.93 307.86-23.95 310.71-23.95L310.71-23.95Q312.36-23.95 313.91-23.6 315.46-23.25 316.43-22.68 317.41-22.1 317.41-21.5L317.41-21.5Q317.41-21.25 317.23-20.85 317.06-20.45 316.76-20.13 316.46-19.8 316.06-19.8L316.06-19.8Q315.66-19.8 314.98-20.18 314.31-20.55 313.26-20.88 312.21-21.2 310.76-21.2L310.76-21.2Q308.96-21.2 307.86-20.55 306.76-19.9 306.26-19.03 305.76-18.15 305.76-17.3L305.76-17.3Q305.76-15.85 306.66-15.1 307.56-14.35 308.98-13.88 310.41-13.4 311.98-12.98 313.56-12.55 314.98-11.8 316.41-11.05 317.28-9.7 318.16-8.35 318.16-6.1L318.16-6.1Q318.16-3.15 316.06-1.4 313.96 0.35 310.11 0.35ZM323.56 4.2L323.56 4.2Q323.11 4.2 322.71 3.95 322.31 3.7 322.31 3.25L322.31 3.25Q322.31 2.95 322.41 2.75L322.41 2.75 323.41 0.15Q322.71-0.1 322.31-0.7 321.91-1.3 321.91-2L321.91-2Q321.91-3 322.56-3.68 323.21-4.35 324.16-4.35L324.16-4.35Q325.06-4.35 325.76-3.73 326.46-3.1 326.46-2L326.46-2Q326.46-1.85 326.43-1.6 326.41-1.35 326.21-0.8 326.01-0.25 325.61 0.8 325.21 1.85 324.51 3.55L324.51 3.55Q324.41 3.9 324.13 4.05 323.86 4.2 323.56 4.2ZM352.25 0.3L352.25 0.3Q349.45 0.3 347.08-0.75 344.7-1.8 343.3-4.15 341.9-6.5 341.9-10.4L341.9-10.4 341.9-25.9Q341.9-29.75 343.33-32.1 344.75-34.45 347.13-35.5 349.5-36.55 352.35-36.55L352.35-36.55Q355.65-36.55 357.95-35.4 360.25-34.25 361.48-32.35 362.7-30.45 362.7-28.2L362.7-28.2Q362.7-27 362.28-26.6 361.85-26.2 361.05-26.2L361.05-26.2Q360.15-26.2 359.78-26.58 359.4-26.95 359.4-27.45L359.4-27.45Q359.35-28.25 359.08-29.3 358.8-30.35 358.08-31.3 357.35-32.25 355.98-32.88 354.6-33.5 352.4-33.5L352.4-33.5Q348.9-33.5 347.05-31.65 345.2-29.8 345.2-25.9L345.2-25.9 345.2-10.4Q345.2-6.45 347.08-4.6 348.95-2.75 352.55-2.75L352.55-2.75Q354.8-2.75 356.1-3.38 357.4-4 358.08-4.93 358.75-5.85 359-6.93 359.25-8 359.4-8.9L359.4-8.9Q359.45-9.55 359.85-9.88 360.25-10.2 361-10.2L361-10.2Q361.85-10.2 362.28-9.78 362.7-9.35 362.7-8.15L362.7-8.15Q362.7-5.9 361.45-3.98 360.2-2.05 357.88-0.88 355.55 0.3 352.25 0.3ZM376.4 0.35L376.4 0.35Q373.85 0.35 371.7-0.98 369.55-2.3 368.22-4.48 366.9-6.65 366.9-9.15L366.9-9.15 366.9-14.6Q366.9-17.1 368.2-19.23 369.5-21.35 371.65-22.65 373.8-23.95 376.4-23.95L376.4-23.95Q378.95-23.95 381.13-22.68 383.3-21.4 384.6-19.3 385.9-17.2 385.9-14.6L385.9-14.6 385.9-9.15Q385.9-6.7 384.6-4.5 383.3-2.3 381.13-0.98 378.95 0.35 376.4 0.35ZM376.4-2.65L376.4-2.65Q378.15-2.65 379.55-3.58 380.95-4.5 381.8-6 382.65-7.5 382.65-9.15L382.65-9.15 382.65-14.6Q382.65-16.2 381.82-17.65 381-19.1 379.57-20.03 378.15-20.95 376.4-20.95L376.4-20.95Q374.65-20.95 373.25-20.03 371.85-19.1 371-17.65 370.15-16.2 370.15-14.6L370.15-14.6 370.15-9.15Q370.15-7.5 371-6 371.85-4.5 373.27-3.58 374.7-2.65 376.4-2.65ZM392.85 0L392.85 0Q392.2 0 391.72-0.4 391.25-0.8 391.25-1.3L391.25-1.3 391.25-22.45Q391.25-23 391.72-23.33 392.2-23.65 392.85-23.65L392.85-23.65Q393.5-23.65 393.95-23.33 394.4-23 394.4-22.45L394.4-22.45 394.4-20.15Q395.2-21.6 396.9-22.78 398.6-23.95 401.1-23.95L401.1-23.95Q403.5-23.95 405.52-22.68 407.55-21.4 408.75-19.3 409.95-17.2 409.95-14.6L409.95-14.6 409.95-1.3Q409.95-0.65 409.45-0.33 408.95 0 408.3 0L408.3 0Q407.75 0 407.22-0.33 406.7-0.65 406.7-1.3L406.7-1.3 406.7-14.6Q406.7-16.2 405.85-17.65 405-19.1 403.6-20.03 402.2-20.95 400.5-20.95L400.5-20.95Q399-20.95 397.62-20.18 396.25-19.4 395.37-18 394.5-16.6 394.5-14.6L394.5-14.6 394.5-1.3Q394.5-0.8 394.02-0.4 393.55 0 392.85 0ZM417.54 0L417.54 0Q416.89 0 416.42-0.4 415.94-0.8 415.94-1.3L415.94-1.3 415.94-22.45Q415.94-23 416.42-23.33 416.89-23.65 417.54-23.65L417.54-23.65Q418.19-23.65 418.64-23.33 419.09-23 419.09-22.45L419.09-22.45 419.09-20.15Q419.89-21.6 421.59-22.78 423.29-23.95 425.79-23.95L425.79-23.95Q428.19-23.95 430.22-22.68 432.24-21.4 433.44-19.3 434.64-17.2 434.64-14.6L434.64-14.6 434.64-1.3Q434.64-0.65 434.14-0.33 433.64 0 432.99 0L432.99 0Q432.44 0 431.92-0.33 431.39-0.65 431.39-1.3L431.39-1.3 431.39-14.6Q431.39-16.2 430.54-17.65 429.69-19.1 428.29-20.03 426.89-20.95 425.19-20.95L425.19-20.95Q423.69-20.95 422.32-20.18 420.94-19.4 420.07-18 419.19-16.6 419.19-14.6L419.19-14.6 419.19-1.3Q419.19-0.8 418.72-0.4 418.24 0 417.54 0ZM450.54 0.35L450.54 0.35Q447.39 0.35 444.97-0.85 442.54-2.05 441.17-4.17 439.79-6.3 439.79-9.15L439.79-9.15 439.79-14.75Q439.79-17.25 441.09-19.35 442.39-21.45 444.57-22.7 446.74-23.95 449.34-23.95L449.34-23.95Q451.84-23.95 453.97-22.78 456.09-21.6 457.39-19.55 458.69-17.5 458.69-14.85L458.69-14.85Q458.69-12.9 458.04-12.08 457.39-11.25 456.42-11.05 455.44-10.85 454.34-10.85L454.34-10.85 443.04-10.85 443.04-9Q443.04-6 445.19-4.25 447.34-2.5 450.64-2.5L450.64-2.5Q452.64-2.5 453.74-3 454.84-3.5 455.47-4 456.09-4.5 456.64-4.5L456.64-4.5Q457.04-4.5 457.37-4.23 457.69-3.95 457.87-3.6 458.04-3.25 458.04-2.95L458.04-2.95Q458.04-2.4 457.14-1.6 456.24-0.8 454.54-0.23 452.84 0.35 450.54 0.35ZM443.04-15.15L443.04-13.25 453.04-13.25Q454.54-13.25 455.04-13.58 455.54-13.9 455.54-14.95L455.54-14.95Q455.54-16.55 454.77-18 453.99-19.45 452.57-20.35 451.14-21.25 449.29-21.25L449.29-21.25Q447.59-21.25 446.17-20.43 444.74-19.6 443.89-18.23 443.04-16.85 443.04-15.15L443.04-15.15ZM472.44 0.35L472.44 0.35Q469.14 0.35 466.99-0.9 464.84-2.15 463.79-4.3 462.74-6.45 462.74-9.15L462.74-9.15 462.74-14.5Q462.74-17.15 463.76-19.3 464.79-21.45 466.96-22.7 469.14-23.95 472.44-23.95L472.44-23.95Q474.54-23.95 476.11-23.43 477.69-22.9 478.56-22.15 479.44-21.4 479.44-20.7L479.44-20.7Q479.44-20.4 479.26-20.03 479.09-19.65 478.76-19.38 478.44-19.1 478.04-19.1L478.04-19.1Q477.59-19.1 477.01-19.58 476.44-20.05 475.44-20.5 474.44-20.95 472.59-20.95L472.59-20.95Q469.34-20.95 467.66-19.23 465.99-17.5 465.99-14.5L465.99-14.5 465.99-9.15Q465.99-6.1 467.66-4.38 469.34-2.65 472.64-2.65L472.64-2.65Q474.54-2.65 475.59-3.13 476.64-3.6 477.21-4.08 477.79-4.55 478.29-4.55L478.29-4.55Q478.74-4.55 479.06-4.3 479.39-4.05 479.56-3.7 479.74-3.35 479.74-2.95L479.74-2.95Q479.74-2.3 478.84-1.53 477.94-0.75 476.31-0.2 474.69 0.35 472.44 0.35ZM493.39 0L491.99 0Q488.14 0 486.09-1.75 484.04-3.5 484.04-7.35L484.04-7.35 484.04-33.7Q484.04-34.25 484.56-34.58 485.09-34.9 485.64-34.9L485.64-34.9Q486.29-34.9 486.79-34.58 487.29-34.25 487.29-33.7L487.29-33.7 487.29-23.65 493.79-23.65Q494.29-23.65 494.59-23.25 494.89-22.85 494.89-22.3L494.89-22.3Q494.89-21.75 494.59-21.35 494.29-20.95 493.79-20.95L493.79-20.95 487.29-20.95 487.29-7.35Q487.29-4.9 488.34-3.93 489.39-2.95 491.99-2.95L491.99-2.95 493.39-2.95Q494.09-2.95 494.46-2.53 494.84-2.1 494.84-1.5L494.84-1.5Q494.84-0.9 494.46-0.45 494.09 0 493.39 0L493.39 0ZM500.48 0L500.48 0Q499.83 0 499.36-0.4 498.88-0.8 498.88-1.3L498.88-1.3 498.88-22.45Q498.88-23 499.36-23.33 499.83-23.65 500.48-23.65L500.48-23.65Q501.18-23.65 501.66-23.33 502.13-23 502.13-22.45L502.13-22.45 502.13-1.3Q502.13-0.8 501.66-0.4 501.18 0 500.48 0ZM500.48-30.65L500.48-30.65Q499.58-30.65 498.93-31.28 498.28-31.9 498.28-32.75L498.28-32.75Q498.28-33.6 498.93-34.2 499.58-34.8 500.48-34.8L500.48-34.8Q501.43-34.8 502.06-34.2 502.68-33.6 502.68-32.75L502.68-32.75Q502.68-31.9 502.06-31.28 501.43-30.65 500.48-30.65ZM509.93 0L509.93 0Q509.28 0 508.81-0.4 508.33-0.8 508.33-1.3L508.33-1.3 508.33-22.45Q508.33-23 508.81-23.33 509.28-23.65 509.93-23.65L509.93-23.65Q510.58-23.65 511.03-23.33 511.48-23 511.48-22.45L511.48-22.45 511.48-20.15Q512.28-21.6 513.98-22.78 515.68-23.95 518.18-23.95L518.18-23.95Q520.58-23.95 522.61-22.68 524.63-21.4 525.83-19.3 527.03-17.2 527.03-14.6L527.03-14.6 527.03-1.3Q527.03-0.65 526.53-0.33 526.03 0 525.38 0L525.38 0Q524.83 0 524.31-0.33 523.78-0.65 523.78-1.3L523.78-1.3 523.78-14.6Q523.78-16.2 522.93-17.65 522.08-19.1 520.68-20.03 519.28-20.95 517.58-20.95L517.58-20.95Q516.08-20.95 514.71-20.18 513.33-19.4 512.46-18 511.58-16.6 511.58-14.6L511.58-14.6 511.58-1.3Q511.58-0.8 511.11-0.4 510.63 0 509.93 0ZM541.43 11.6L541.43 11.6Q538.48 11.6 536.2 10.78 533.93 9.95 532.6 8.47 531.28 7 531.28 4.95L531.28 4.95Q531.28 2.75 532.58 1.45 533.88 0.15 535.53-0.5L535.53-0.5Q534.33-0.95 533.55-1.73 532.78-2.5 532.78-3.95L532.78-3.95Q532.78-5.35 533.48-6.18 534.18-7 535.28-7.55L535.28-7.55Q533.93-8.65 533.23-10.28 532.53-11.9 532.53-13.85L532.53-13.85 532.53-15.75Q532.53-18.15 533.58-20 534.63-21.85 536.58-22.9 538.53-23.95 541.13-23.95L541.13-23.95Q542.88-23.95 544.38-23.4 545.88-22.85 546.98-21.85L546.98-21.85Q547.73-23.4 548.68-24.2 549.63-25 550.53-25L550.53-25Q551.28-25 551.65-24.58 552.03-24.15 552.03-23.7L552.03-23.7Q552.03-23.25 551.78-22.98 551.53-22.7 551.18-22.6L551.18-22.6Q550.58-22.5 549.8-22.05 549.03-21.6 548.38-20.45L548.38-20.45Q549.08-19.5 549.43-18.3 549.78-17.1 549.78-15.75L549.78-15.75 549.78-13.85Q549.78-11.5 548.68-9.6 547.58-7.7 545.6-6.63 543.63-5.55 541.08-5.55L541.08-5.55Q538.93-5.55 537.23-6.4L537.23-6.4Q536.68-6.1 536.18-5.68 535.68-5.25 535.68-4.45L535.68-4.45Q535.68-3.35 536.83-2.85 537.98-2.35 539.73-2.15 541.48-1.95 543.45-1.73 545.43-1.5 547.2-0.9 548.98-0.3 550.1 0.95 551.23 2.2 551.23 4.5L551.23 4.5Q551.23 6.85 549.95 8.43 548.68 10 546.48 10.8 544.28 11.6 541.43 11.6ZM541.38 9.15L541.38 9.15Q544.53 9.15 546.3 7.9 548.08 6.65 548.08 4.6L548.08 4.6Q548.08 3 547.1 2.18 546.13 1.35 544.65 1 543.18 0.65 541.6 0.5 540.03 0.35 538.88 0.2L538.88 0.2Q537.13 0.75 535.78 1.8 534.43 2.85 534.43 4.65L534.43 4.65Q534.43 6.65 536.28 7.9 538.13 9.15 541.38 9.15ZM541.18-8L541.18-8Q543.73-8 545.15-9.68 546.58-11.35 546.58-13.85L546.58-13.85 546.58-15.75Q546.58-18.2 545.15-19.85 543.73-21.5 541.13-21.5L541.13-21.5Q538.53-21.5 537.1-19.85 535.68-18.2 535.68-15.75L535.68-15.75 535.68-13.9Q535.68-11.4 537.13-9.7 538.58-8 541.18-8ZM568.07 0L568.07 0Q567.42 0 566.92-0.33 566.42-0.65 566.42-1.3L566.42-1.3 566.42-35.35Q566.42-35.85 566.8-36.18 567.17-36.5 567.82-36.55L567.82-36.55 577.02-36.55Q579.92-36.55 582.27-35.5 584.62-34.45 585.97-32.13 587.32-29.8 587.32-25.95L587.32-25.95 587.32-25.45Q587.32-21.55 585.95-19.23 584.57-16.9 582.2-15.85 579.82-14.8 576.92-14.8L576.92-14.8 569.72-14.8 569.72-1.3Q569.72-0.65 569.2-0.33 568.67 0 568.07 0ZM569.72-33.5L569.72-17.65 576.92-17.65Q580.27-17.65 582.15-19.53 584.02-21.4 584.02-25.3L584.02-25.3 584.02-25.9Q584.02-29.8 582.15-31.65 580.27-33.5 576.92-33.5L576.92-33.5 569.72-33.5ZM600.72 0.35L600.72 0.35Q597.57 0.35 595.15-0.85 592.72-2.05 591.35-4.17 589.97-6.3 589.97-9.15L589.97-9.15 589.97-14.75Q589.97-17.25 591.27-19.35 592.57-21.45 594.75-22.7 596.92-23.95 599.52-23.95L599.52-23.95Q602.02-23.95 604.15-22.78 606.27-21.6 607.57-19.55 608.87-17.5 608.87-14.85L608.87-14.85Q608.87-12.9 608.22-12.08 607.57-11.25 606.6-11.05 605.62-10.85 604.52-10.85L604.52-10.85 593.22-10.85 593.22-9Q593.22-6 595.37-4.25 597.52-2.5 600.82-2.5L600.82-2.5Q602.82-2.5 603.92-3 605.02-3.5 605.65-4 606.27-4.5 606.82-4.5L606.82-4.5Q607.22-4.5 607.55-4.23 607.87-3.95 608.05-3.6 608.22-3.25 608.22-2.95L608.22-2.95Q608.22-2.4 607.32-1.6 606.42-0.8 604.72-0.23 603.02 0.35 600.72 0.35ZM593.22-15.15L593.22-13.25 603.22-13.25Q604.72-13.25 605.22-13.58 605.72-13.9 605.72-14.95L605.72-14.95Q605.72-16.55 604.95-18 604.17-19.45 602.75-20.35 601.32-21.25 599.47-21.25L599.47-21.25Q597.77-21.25 596.35-20.43 594.92-19.6 594.07-18.23 593.22-16.85 593.22-15.15L593.22-15.15ZM622.32 0.35L622.32 0.35Q619.77 0.35 617.62-0.98 615.47-2.3 614.14-4.48 612.82-6.65 612.82-9.15L612.82-9.15 612.82-14.6Q612.82-17.1 614.12-19.23 615.42-21.35 617.57-22.65 619.72-23.95 622.32-23.95L622.32-23.95Q624.87-23.95 627.04-22.68 629.22-21.4 630.52-19.3 631.82-17.2 631.82-14.6L631.82-14.6 631.82-9.15Q631.82-6.7 630.52-4.5 629.22-2.3 627.04-0.98 624.87 0.35 622.32 0.35ZM622.32-2.65L622.32-2.65Q624.07-2.65 625.47-3.58 626.87-4.5 627.72-6 628.57-7.5 628.57-9.15L628.57-9.15 628.57-14.6Q628.57-16.2 627.74-17.65 626.92-19.1 625.49-20.03 624.07-20.95 622.32-20.95L622.32-20.95Q620.57-20.95 619.17-20.03 617.77-19.1 616.92-17.65 616.07-16.2 616.07-14.6L616.07-14.6 616.07-9.15Q616.07-7.5 616.92-6 617.77-4.5 619.19-3.58 620.62-2.65 622.32-2.65ZM638.82 11.6L638.82 11.6Q638.17 11.6 637.69 11.2 637.22 10.8 637.22 10.3L637.22 10.3 637.22-22.45Q637.22-23 637.69-23.33 638.17-23.65 638.82-23.65L638.82-23.65Q639.47-23.65 639.92-23.33 640.37-23 640.37-22.45L640.37-22.45 640.37-20.15Q641.22-21.6 642.92-22.78 644.62-23.95 647.07-23.95L647.07-23.95Q649.57-23.95 651.59-22.68 653.62-21.4 654.84-19.3 656.07-17.2 656.07-14.6L656.07-14.6 656.07-9.15Q656.07-6.7 654.84-4.5 653.62-2.3 651.62-0.98 649.62 0.35 647.22 0.35L647.22 0.35Q644.92 0.35 643.12-0.8 641.32-1.95 640.47-3.5L640.47-3.5 640.47 10.3Q640.47 10.8 639.99 11.2 639.52 11.6 638.82 11.6ZM646.62-2.65L646.62-2.65Q648.27-2.65 649.67-3.58 651.07-4.5 651.94-6 652.82-7.5 652.82-9.15L652.82-9.15 652.82-14.6Q652.82-16.2 651.97-17.65 651.12-19.1 649.69-20.03 648.27-20.95 646.52-20.95L646.52-20.95Q645.02-20.95 643.64-20.18 642.27-19.4 641.37-18 640.47-16.6 640.47-14.6L640.47-14.6 640.47-7.6Q640.47-6.85 641.27-5.68 642.07-4.5 643.47-3.58 644.87-2.65 646.62-2.65ZM663.41 0L663.41 0Q662.76 0 662.29-0.4 661.81-0.8 661.81-1.3L661.81-1.3 661.81-36.95Q661.81-37.5 662.29-37.83 662.76-38.15 663.41-38.15L663.41-38.15Q664.11-38.15 664.59-37.83 665.06-37.5 665.06-36.95L665.06-36.95 665.06-1.3Q665.06-0.8 664.59-0.4 664.11 0 663.41 0ZM681.66 0.35L681.66 0.35Q678.51 0.35 676.09-0.85 673.66-2.05 672.29-4.17 670.91-6.3 670.91-9.15L670.91-9.15 670.91-14.75Q670.91-17.25 672.21-19.35 673.51-21.45 675.69-22.7 677.86-23.95 680.46-23.95L680.46-23.95Q682.96-23.95 685.09-22.78 687.21-21.6 688.51-19.55 689.81-17.5 689.81-14.85L689.81-14.85Q689.81-12.9 689.16-12.08 688.51-11.25 687.54-11.05 686.56-10.85 685.46-10.85L685.46-10.85 674.16-10.85 674.16-9Q674.16-6 676.31-4.25 678.46-2.5 681.76-2.5L681.76-2.5Q683.76-2.5 684.86-3 685.96-3.5 686.59-4 687.21-4.5 687.76-4.5L687.76-4.5Q688.16-4.5 688.49-4.23 688.81-3.95 688.99-3.6 689.16-3.25 689.16-2.95L689.16-2.95Q689.16-2.4 688.26-1.6 687.36-0.8 685.66-0.23 683.96 0.35 681.66 0.35ZM674.16-15.15L674.16-13.25 684.16-13.25Q685.66-13.25 686.16-13.58 686.66-13.9 686.66-14.95L686.66-14.95Q686.66-16.55 685.89-18 685.11-19.45 683.69-20.35 682.26-21.25 680.41-21.25L680.41-21.25Q678.71-21.25 677.29-20.43 675.86-19.6 675.01-18.23 674.16-16.85 674.16-15.15L674.16-15.15Z" opacity="1" transform="matrix(1,0,0,1,0,0)" fill="#1c4a44" class="slogan-text-1" data-fill-palette-color="secondary" id="text-1"></path></svg></g></svg></g></svg></g></svg></g><g transform="matrix(1,0,0,1,76.53311999999997,0)"><svg viewBox="0 0 244.43135999999998 105.42841730568426" height="105.42841730568426" width="244.43135999999998"><g><svg xmlns="http://www.w3.org/2000/svg" xmlns:xlink="http://www.w3.org/1999/xlink" version="1.1" x="0" y="0" viewBox="20.385 36.201 47.693 20.570999999999998" enable-background="new 0 0 85 96" xml:space="preserve" height="105.42841730568426" width="244.43135999999998" class="icon-icon-0" data-fill-palette-color="accent" id="icon-0"><polygon points="35.166,41.838 37.452,44.124 33.184,50.22 47.355,36.201 68.078,56.772 20.385,56.772 " fill="#1c4a44" data-fill-palette-color="accent"></polygon><polygon fill="#1c4a44" points="47.355,41.381 53.068,46.486 50.861,47.323 58.783,53.267 49.777,51.049 52.078,49.914   47.355,46.486 49.945,45.8 " data-fill-palette-color="accent"></polygon></svg></g></svg></g><g></g></svg></g><defs></defs></svg><rect width="353.56813861984506" height="247.2" fill="none" stroke="none" visibility="hidden"></rect></g></svg></g></svg>