<svg xmlns="http://www.w3.org/2000/svg" version="1.1" xmlns:xlink="http://www.w3.org/1999/xlink" xmlns:svgjs="http://svgjs.dev/svgjs" width="1500" height="1500" viewBox="0 0 1500 1500"><rect width="1500" height="1500" fill="#000000"></rect><g transform="matrix(0.6666666666666666,0,0,0.6666666666666666,249.39393939393938,672.8504087701489)"><svg viewBox="0 0 396 61" data-background-color="#cbe7dd" preserveAspectRatio="xMidYMid meet" height="231" width="1500" xmlns="http://www.w3.org/2000/svg" xmlns:xlink="http://www.w3.org/1999/xlink"><g id="tight-bounds" transform="matrix(1,0,0,1,0.2400000000000091,0.05925366896698847)"><svg viewBox="0 0 395.52 60.88149266206604" height="60.88149266206604" width="395.52"><g><svg viewBox="0 0 684.921571226949 105.42841730568426" height="60.88149266206604" width="395.52"><g><rect width="7.211847476362117" height="95.96493608139836" x="263.3105418752935" y="4.73174061214295" fill="#ffffff" opacity="1" stroke-width="0" stroke="transparent" fill-opacity="1" class="rect-qz-0" data-fill-palette-color="primary" rx="1%" id="qz-0" data-palette-color="#1c4a44"></rect></g><g transform="matrix(1,0,0,1,289.4015712269491,12.728818618926148)"><svg viewBox="0 0 395.52 79.97078006783197" height="79.97078006783197" width="395.52"><g id="textblocktransform"><svg viewBox="0 0 395.52 79.97078006783197" height="79.97078006783197" width="395.52" id="textblock"><g><svg viewBox="0 0 395.52 79.97078006783197" height="79.97078006783197" width="395.52"><g transform="matrix(1,0,0,1,0,0)"><svg width="395.52" viewBox="3.65 -38.1 191.63 38.75" height="79.97078006783197" data-palette-color="#1c4a44"><path d="M26.7 0L26.7-17.2 9-17.2 9 0 4.35 0 4.35-33.1Q4.35-33.15 4.17-33.9 4-34.65 3.85-35.45 3.7-36.25 3.65-36.4L3.65-36.4 9-36.4 9-20.6 26.7-20.6 26.7-36.4 31.35-36.4 31.35 0 26.7 0ZM44.95-33.2L44.95-33.2Q44.95-31.95 44.07-31.05 43.2-30.15 41.9-30.15L41.9-30.15Q40.65-30.15 39.77-31.05 38.9-31.95 38.9-33.2L38.9-33.2Q38.9-34.45 39.77-35.35 40.65-36.25 41.9-36.25L41.9-36.25Q43.15-36.25 44.05-35.35 44.95-34.45 44.95-33.2ZM39.3-24.85L44.05-24.85 44.05 0 39.9 0 39.9-21.9 39.3-24.85ZM51.65-38.1L56.45-38.1 56.45-14.6 65.75-24.85 70.2-24.85 60.65-14.4 71.55 0 66.59 0 56.45-13.5 56.45 0 52.3 0 52.3-35.15 51.65-38.1ZM83.69-25.45L83.69-25.45Q86.69-25.45 88.74-24.23 90.79-23 91.82-20.83 92.84-18.65 92.84-15.75L92.84-15.75Q92.84-15.05 92.77-14.33 92.69-13.6 92.59-12.8L92.59-12.8 76.79-12.8Q76.79-8.05 78.89-5.45 80.99-2.85 84.49-2.85L84.49-2.85Q85.94-2.85 87.52-3.3 89.09-3.75 90.79-4.65L90.79-4.65 92.34-2.15Q90.59-0.75 88.39-0.05 86.19 0.65 83.94 0.65L83.94 0.65Q80.04 0.65 77.47-1.2 74.89-3.05 73.64-6 72.39-8.95 72.39-12.15L72.39-12.15Q72.39-14.65 73.09-17 73.79-19.35 75.22-21.28 76.64-23.2 78.74-24.33 80.84-25.45 83.69-25.45ZM83.29-22.3L83.29-22.3Q81.59-22.3 80.29-21.35 78.99-20.4 78.19-18.93 77.39-17.45 77.09-15.9L77.09-15.9 88.49-15.9Q88.54-18 87.92-19.43 87.29-20.85 86.12-21.58 84.94-22.3 83.29-22.3ZM110.69-33.1L109.99-36.4 115.34-36.4 115.34-3.45 130.64-3.45 130.64 0 110.69 0 110.69-33.1ZM141.34-33.2L141.34-33.2Q141.34-31.95 140.46-31.05 139.59-30.15 138.29-30.15L138.29-30.15Q137.04-30.15 136.16-31.05 135.29-31.95 135.29-33.2L135.29-33.2Q135.29-34.45 136.16-35.35 137.04-36.25 138.29-36.25L138.29-36.25Q139.54-36.25 140.44-35.35 141.34-34.45 141.34-33.2ZM135.69-24.85L140.44-24.85 140.44 0 136.29 0 136.29-21.9 135.69-24.85ZM146.98-24.65L151.53-25.25Q151.88-24.4 152.13-23.5 152.38-22.6 152.48-21.7L152.48-21.7Q153.98-23.2 156.03-24.33 158.08-25.45 160.23-25.45L160.23-25.45Q162.98-25.45 164.66-24.3 166.33-23.15 167.08-21.18 167.83-19.2 167.83-16.6L167.83-16.6 167.83 0 163.73 0 163.73-15.25Q163.73-16.8 163.51-18.3 163.28-19.8 162.41-20.78 161.53-21.75 159.53-21.75L159.53-21.75Q158.33-21.75 157.08-21.28 155.83-20.8 154.73-20.05 153.63-19.3 152.73-18.45L152.73-18.45 152.73 0 148.63 0 148.63-17.6Q148.63-18.6 148.48-19.93 148.33-21.25 147.98-22.53 147.63-23.8 146.98-24.65L146.98-24.65ZM175.38-38.1L180.18-38.1 180.18-14.6 189.48-24.85 193.93-24.85 184.38-14.4 195.28 0 190.33 0 180.18-13.5 180.18 0 176.03 0 176.03-35.15 175.38-38.1Z" opacity="1" transform="matrix(1,0,0,1,0,0)" fill="#ffffff" class="wordmark-text-0" data-fill-palette-color="primary" id="text-0"></path></svg></g></svg></g></svg></g></svg></g><g><svg viewBox="0 0 244.43135999999998 105.42841730568426" height="105.42841730568426" width="244.43135999999998"><g><svg xmlns="http://www.w3.org/2000/svg" xmlns:xlink="http://www.w3.org/1999/xlink" version="1.1" x="0" y="0" viewBox="20.385 36.201 47.693 20.570999999999998" enable-background="new 0 0 85 96" xml:space="preserve" height="105.42841730568426" width="244.43135999999998" class="icon-icon-0" data-fill-palette-color="accent" id="icon-0"><polygon points="35.166,41.838 37.452,44.124 33.184,50.22 47.355,36.201 68.078,56.772 20.385,56.772 " fill="#ffffff" data-fill-palette-color="accent"></polygon><polygon fill="#ffffff" points="47.355,41.381 53.068,46.486 50.861,47.323 58.783,53.267 49.777,51.049 52.078,49.914   47.355,46.486 49.945,45.8 " data-fill-palette-color="accent"></polygon></svg></g></svg></g></svg></g><defs></defs></svg><rect width="395.52" height="60.88149266206604" fill="none" stroke="none" visibility="hidden"></rect></g></svg></g></svg>